<svg width="31" height="30" viewBox="0 0 31 30" fill="none" xmlns="http://www.w3.org/2000/svg">
<path d="M7.39886 21.8594C7.10452 21.8594 6.82224 21.9763 6.61411 22.1844C6.40599 22.3926 6.28906 22.6748 6.28906 22.9692C6.28906 23.2635 6.40599 23.5458 6.61411 23.7539C6.82224 23.962 7.10452 24.079 7.39886 24.079H22.936C23.2303 24.079 23.5126 23.962 23.7207 23.7539C23.9289 23.5458 24.0458 23.2635 24.0458 22.9692C24.0458 22.6748 23.9289 22.3926 23.7207 22.1844C23.5126 21.9763 23.2303 21.8594 22.936 21.8594H7.39886Z" fill="#0D1321"/>
<path fill-rule="evenodd" clip-rule="evenodd" d="M15.1673 0C14.1744 0 13.2985 0.32702 12.3869 0.849364C11.5139 1.34803 10.5195 2.08198 9.29579 2.98313L3.85483 6.99319C2.28632 8.14738 1.19428 8.94939 0.596467 10.1347C-0.00134265 11.3184 -0.00134279 12.6739 0.000136935 14.6227V20.0932C0.000136935 22.116 0.000136917 23.7482 0.173265 25.0311C0.350832 26.3628 0.735562 27.4845 1.62488 28.3753C2.51567 29.2661 3.63731 29.6478 4.96906 29.8284C6.25199 30 7.88413 30 9.90691 30H20.4278C22.4506 30 24.0827 30 25.3656 29.8284C26.6974 29.6478 27.819 29.2661 28.7098 28.3753C29.6006 27.4845 29.9824 26.3628 30.1629 25.0311C30.3346 23.7482 30.3346 22.116 30.3346 20.0932V14.6227C30.3346 12.6739 30.336 11.3184 29.7382 10.1347C29.1404 8.95087 28.0484 8.14738 26.4784 6.99171L21.0389 2.98313C19.8152 2.0805 18.8193 1.34803 17.9463 0.849364C17.0362 0.32702 16.1602 0 15.1673 0ZM10.5595 4.80912C11.8498 3.85913 12.7421 3.20361 13.4893 2.77449C14.2144 2.36017 14.7027 2.21959 15.1673 2.21959C15.6335 2.21959 16.1218 2.36165 16.8439 2.77449C17.5926 3.20361 18.4864 3.85913 19.7752 4.80912L24.9543 8.62681C26.8172 9.99852 27.4269 10.4824 27.7569 11.135C28.0868 11.7875 28.115 12.5658 28.115 14.8787V20.0118C28.115 22.1352 28.112 23.6165 27.9626 24.7351C27.8161 25.8212 27.5482 26.3954 27.1398 26.8053C26.7299 27.2152 26.1558 27.4815 25.0682 27.628C23.951 27.7774 22.4698 27.7804 20.3464 27.7804H9.9883C7.86489 27.7804 6.3822 27.7774 5.26501 27.628C4.17889 27.4815 3.60475 27.2137 3.19487 26.8053C2.78498 26.3954 2.51863 25.8212 2.37214 24.7337C2.22269 23.6165 2.21973 22.1352 2.21973 20.0118V14.8801C2.21973 12.5658 2.24784 11.7875 2.57782 11.1364C2.9078 10.4824 3.51745 9.99704 5.38043 8.62533L10.5595 4.80912Z" fill="#0D1321"/>
</svg>
