<svg width="30" height="30" viewBox="0 0 30 30" fill="none" xmlns="http://www.w3.org/2000/svg">
<path d="M8.57204 30.0001H3.21452C2.36228 29.9992 1.54523 29.6602 0.942606 29.0575C0.339983 28.4549 0.000992541 27.6379 0 26.7856V15.5348C0.000992541 14.6826 0.339983 13.8655 0.942606 13.2629C1.54523 12.6603 2.36228 12.3213 3.21452 12.3203H11.7866C12.6388 12.3213 13.4558 12.6603 14.0585 13.2629C14.6611 13.8655 15.0001 14.6826 15.0011 15.5348V23.5711C15.001 23.7132 14.9446 23.8494 14.8441 23.9499L8.95082 29.8432C8.85037 29.9437 8.71412 30.0001 8.57204 30.0001ZM3.21452 13.3918C2.64633 13.3924 2.10157 13.6183 1.6998 14.0201C1.29804 14.4219 1.07207 14.9666 1.07151 15.5348V26.7856C1.07207 27.3538 1.29804 27.8986 1.6998 28.3003C2.10157 28.7021 2.64633 28.9281 3.21452 28.9286H8.35024L13.9296 23.3493V15.5348C13.929 14.9666 13.703 14.4219 13.3013 14.0201C12.8995 13.6183 12.3547 13.3924 11.7866 13.3918H3.21452Z" fill="#0D1321"/>
<path d="M8.57161 30.0023C8.42952 30.0023 8.29325 29.9458 8.19277 29.8453C8.0923 29.7449 8.03586 29.6086 8.03586 29.4665V26.252C8.03685 25.3998 8.37584 24.5827 8.97846 23.9801C9.58109 23.3775 10.3981 23.0385 11.2504 23.0375H14.4649C14.5708 23.0375 14.6744 23.0689 14.7625 23.1278C14.8506 23.1867 14.9192 23.2703 14.9598 23.3682C15.0003 23.4661 15.0109 23.5738 14.9902 23.6777C14.9696 23.7816 14.9186 23.8771 14.8437 23.952L8.95039 29.8453C8.84994 29.9458 8.71369 30.0022 8.57161 30.0023ZM11.2504 24.109C10.6822 24.1096 10.1374 24.3355 9.73566 24.7373C9.33389 25.1391 9.10793 25.6838 9.10736 26.252V28.1732L13.1716 24.109H11.2504ZM5.08922 19.823C4.50643 19.823 3.93673 19.6501 3.45215 19.3264C2.96758 19.0026 2.5899 18.5424 2.36688 18.004C2.14385 17.4655 2.0855 16.8731 2.1992 16.3015C2.31289 15.7299 2.59353 15.2048 3.00563 14.7927C3.41772 14.3806 3.94277 14.1 4.51436 13.9863C5.08595 13.8726 5.67842 13.931 6.21685 14.154C6.75528 14.377 7.21548 14.7547 7.53926 15.2393C7.86304 15.7238 8.03586 16.2935 8.03586 16.8763C8.03486 17.6575 7.7241 18.4064 7.17171 18.9588C6.61932 19.5112 5.87041 19.822 5.08922 19.823ZM5.08922 15.0012C4.71835 15.0012 4.35581 15.1112 4.04745 15.3172C3.73909 15.5233 3.49874 15.8161 3.35682 16.1587C3.2149 16.5014 3.17776 16.8784 3.25011 17.2421C3.32247 17.6059 3.50106 17.94 3.7633 18.2022C4.02554 18.4645 4.35966 18.6431 4.7234 18.7154C5.08714 18.7878 5.46416 18.7506 5.8068 18.6087C6.14944 18.4668 6.44229 18.2265 6.64833 17.9181C6.85438 17.6097 6.96435 17.2472 6.96435 16.8763C6.96378 16.3792 6.76604 15.9026 6.41451 15.551C6.06298 15.1995 5.58636 15.0018 5.08922 15.0012Z" fill="#0D1321"/>
<path d="M5.35709 18.2164C5.28674 18.2164 5.21707 18.2026 5.15208 18.1756C5.08708 18.1487 5.02804 18.1092 4.97832 18.0594L3.90681 16.9879C3.80922 16.8869 3.75522 16.7515 3.75644 16.6111C3.75766 16.4706 3.81401 16.3362 3.91334 16.2369C4.01267 16.1376 4.14704 16.0812 4.28752 16.08C4.42799 16.0788 4.56332 16.1328 4.66437 16.2304L5.3212 16.8872L7.62386 14.1227C7.71487 14.0135 7.84556 13.9448 7.98718 13.9319C8.0573 13.9255 8.12799 13.933 8.19522 13.9539C8.26245 13.9748 8.3249 14.0088 8.37901 14.0539C8.43311 14.0989 8.47781 14.1542 8.51055 14.2166C8.54329 14.2789 8.56343 14.3471 8.56982 14.4172C8.57622 14.4873 8.56874 14.558 8.54781 14.6252C8.52688 14.6925 8.49291 14.7549 8.44785 14.809L5.76909 18.0235C5.72133 18.0808 5.66218 18.1274 5.5954 18.1605C5.52861 18.1937 5.45567 18.2125 5.3812 18.2159L5.35709 18.2164ZM11.7861 15.5376H9.64311C9.50102 15.5376 9.36475 15.4812 9.26428 15.3807C9.16381 15.2803 9.10736 15.144 9.10736 15.0019C9.10736 14.8598 9.16381 14.7235 9.26428 14.6231C9.36475 14.5226 9.50102 14.4661 9.64311 14.4661H11.7861C11.9282 14.4661 12.0645 14.5226 12.165 14.6231C12.2654 14.7235 12.3219 14.8598 12.3219 15.0019C12.3219 15.144 12.2654 15.2803 12.165 15.3807C12.0645 15.4812 11.9282 15.5376 11.7861 15.5376ZM12.3219 17.1449H9.10736C8.96527 17.1449 8.829 17.0885 8.72853 16.988C8.62805 16.8875 8.57161 16.7512 8.57161 16.6091C8.57161 16.4671 8.62805 16.3308 8.72853 16.2303C8.829 16.1298 8.96527 16.0734 9.10736 16.0734H12.3219C12.464 16.0734 12.6002 16.1298 12.7007 16.2303C12.8012 16.3308 12.8576 16.4671 12.8576 16.6091C12.8576 16.7512 12.8012 16.8875 12.7007 16.988C12.6002 17.0885 12.464 17.1449 12.3219 17.1449ZM5.08922 26.7884C4.50643 26.7884 3.93673 26.6156 3.45215 26.2918C2.96758 25.9681 2.5899 25.5079 2.36688 24.9694C2.14385 24.431 2.0855 23.8385 2.1992 23.2669C2.31289 22.6954 2.59353 22.1703 3.00563 21.7582C3.41772 21.3461 3.94277 21.0655 4.51436 20.9518C5.08595 20.8381 5.67842 20.8964 6.21685 21.1195C6.75528 21.3425 7.21548 21.7202 7.53926 22.2047C7.86304 22.6893 8.03586 23.259 8.03586 23.8418C8.03486 24.623 7.7241 25.3719 7.17171 25.9243C6.61932 26.4767 5.87041 26.7875 5.08922 26.7884ZM5.08922 21.9667C4.71835 21.9667 4.35581 22.0766 4.04745 22.2827C3.73909 22.4887 3.49874 22.7816 3.35682 23.1242C3.2149 23.4669 3.17776 23.8439 3.25011 24.2076C3.32247 24.5714 3.50106 24.9055 3.7633 25.1677C4.02554 25.43 4.35966 25.6086 4.7234 25.6809C5.08714 25.7533 5.46416 25.7161 5.8068 25.5742C6.14944 25.4323 6.44229 25.1919 6.64833 24.8836C6.85438 24.5752 6.96435 24.2127 6.96435 23.8418C6.96378 23.3447 6.76604 22.868 6.41451 22.5165C6.06298 22.165 5.58636 21.9672 5.08922 21.9667ZM11.7861 22.5024H9.64311C9.50102 22.5024 9.36475 22.446 9.26428 22.3455C9.16381 22.245 9.10736 22.1088 9.10736 21.9667C9.10736 21.8246 9.16381 21.6883 9.26428 21.5878C9.36475 21.4874 9.50102 21.4309 9.64311 21.4309H11.7861C11.9282 21.4309 12.0645 21.4874 12.165 21.5878C12.2654 21.6883 12.3219 21.8246 12.3219 21.9667C12.3219 22.1088 12.2654 22.245 12.165 22.3455C12.0645 22.446 11.9282 22.5024 11.7861 22.5024Z" fill="#0D1321"/>
<path d="M18.7514 22.4995C17.9963 22.499 17.2431 22.4236 16.5029 22.2745C16.367 22.2431 16.2486 22.16 16.173 22.0428C16.0974 21.9256 16.0705 21.7835 16.098 21.6468C16.1255 21.5101 16.2052 21.3894 16.3202 21.3105C16.4353 21.2317 16.5765 21.2007 16.714 21.2244C17.3847 21.3595 18.0672 21.4277 18.7514 21.428C20.7432 21.4286 22.6913 20.8449 24.3546 19.7493C26.0178 18.6536 27.3231 17.094 28.1087 15.2638C28.8943 13.4336 29.1258 11.4131 28.7744 9.45263C28.4229 7.49216 27.5041 5.67786 26.1317 4.23446C24.7593 2.79107 22.9936 1.782 21.0533 1.33227C19.113 0.882531 17.0834 1.01188 15.2159 1.7043C13.3485 2.39672 11.7251 3.62178 10.5471 5.22772C9.36898 6.83367 8.68791 8.74994 8.58822 10.7392C8.57898 10.8804 8.51516 11.0124 8.41027 11.1074C8.30538 11.2024 8.16765 11.2529 8.02622 11.2481C7.95593 11.2447 7.887 11.2274 7.82338 11.1974C7.75975 11.1673 7.70268 11.125 7.65542 11.0728C7.60815 11.0207 7.57162 10.9598 7.54792 10.8935C7.52421 10.8272 7.51379 10.7569 7.51725 10.6867C7.62742 8.48835 8.38004 6.37065 9.68191 4.59587C10.9838 2.82109 12.7777 1.4672 14.8414 0.701901C16.9051 -0.0633996 19.148 -0.206487 21.2923 0.290361C23.4366 0.78721 25.3879 1.90217 26.9048 3.49713C28.4216 5.09209 29.4373 7.09698 29.8259 9.26346C30.2145 11.4299 29.959 13.6628 29.0911 15.6856C28.2233 17.7083 26.7811 19.432 24.9432 20.6432C23.1053 21.8543 20.9525 22.4997 18.7514 22.4995Z" fill="#0D1321"/>
<path d="M18.7515 20.3562C17.9835 20.3574 17.2185 20.2616 16.4745 20.0712C16.4051 20.0549 16.3396 20.0248 16.2819 19.9829C16.2242 19.9409 16.1755 19.8878 16.1386 19.8267C16.1017 19.7657 16.0774 19.6979 16.067 19.6273C16.0567 19.5567 16.0606 19.4848 16.0784 19.4157C16.0962 19.3466 16.1277 19.2818 16.1709 19.225C16.2142 19.1683 16.2683 19.1207 16.3301 19.0852C16.392 19.0496 16.4603 19.0268 16.5311 19.018C16.6019 19.0092 16.6737 19.0146 16.7424 19.034C18.3447 19.4479 20.0357 19.3571 21.5846 18.7741C23.1334 18.1911 24.4645 17.1443 25.3962 15.7765C26.3279 14.4088 26.8148 12.7869 26.7903 11.1321C26.7658 9.47739 26.2312 7.87054 25.2595 6.53096C24.2877 5.19139 22.9262 4.18438 21.3609 3.64743C19.7955 3.11048 18.1025 3.06977 16.5131 3.53084C14.9237 3.99192 13.5154 4.93232 12.4804 6.22363C11.4454 7.51495 10.8342 9.09424 10.7302 10.7459C10.7197 10.8864 10.6543 11.0172 10.548 11.1098C10.4418 11.2025 10.3034 11.2495 10.1627 11.2408C10.022 11.2321 9.89045 11.1682 9.79651 11.0632C9.70257 10.9581 9.65381 10.8202 9.66082 10.6795C9.77183 8.90584 10.3993 7.20344 11.4659 5.78202C12.5325 4.36061 13.9916 3.28227 15.6635 2.67987C17.3353 2.07747 19.1469 1.97733 20.875 2.39179C22.6031 2.80625 24.1721 3.71721 25.3889 5.01241C26.6056 6.30761 27.4169 7.93048 27.7227 9.68105C28.0286 11.4316 27.8156 13.2334 27.11 14.8644C26.4045 16.4955 25.2372 17.8845 23.752 18.8603C22.2668 19.8361 20.5286 20.3561 18.7515 20.3562Z" fill="#0D1321"/>
<path d="M18.7518 12.8551C18.4339 12.8551 18.1232 12.7609 17.8588 12.5843C17.5945 12.4077 17.3885 12.1566 17.2669 11.863C17.1452 11.5693 17.1134 11.2461 17.1754 10.9343C17.2374 10.6225 17.3905 10.3362 17.6153 10.1114C17.8401 9.8866 18.1265 9.73353 18.4382 9.67151C18.75 9.60949 19.0732 9.64132 19.3669 9.76297C19.6605 9.88462 19.9116 10.0906 20.0882 10.3549C20.2648 10.6193 20.359 10.93 20.359 11.2479C20.3586 11.674 20.1891 12.0826 19.8878 12.3839C19.5865 12.6852 19.1779 12.8547 18.7518 12.8551ZM18.7518 10.7121C18.6458 10.7121 18.5422 10.7436 18.4541 10.8024C18.366 10.8613 18.2974 10.945 18.2568 11.0429C18.2163 11.1408 18.2057 11.2485 18.2263 11.3524C18.247 11.4563 18.298 11.5518 18.373 11.6267C18.4479 11.7016 18.5433 11.7527 18.6473 11.7733C18.7512 11.794 18.8589 11.7834 18.9568 11.7429C19.0547 11.7023 19.1384 11.6336 19.1973 11.5455C19.2561 11.4574 19.2875 11.3538 19.2875 11.2479C19.2874 11.1058 19.2309 10.9696 19.1305 10.8692C19.03 10.7688 18.8938 10.7123 18.7518 10.7121Z" fill="#0D1321"/>
<path d="M17.9935 11.0299C17.9231 11.03 17.8534 11.0162 17.7884 10.9892C17.7234 10.9623 17.6644 10.9228 17.6147 10.873L16.0996 9.35731C16.002 9.25626 15.948 9.12093 15.9492 8.98046C15.9505 8.83999 16.0068 8.70561 16.1061 8.60628C16.2055 8.50695 16.3398 8.4506 16.4803 8.44938C16.6208 8.44816 16.7561 8.50216 16.8572 8.59975L18.3723 10.1154C18.4472 10.1903 18.4982 10.2858 18.5188 10.3897C18.5395 10.4936 18.5289 10.6013 18.4884 10.6992C18.4478 10.7971 18.3792 10.8807 18.2911 10.9396C18.203 10.9985 18.0994 11.0299 17.9935 11.0299ZM19.5086 11.0299C19.4027 11.0299 19.2991 10.9985 19.211 10.9396C19.1229 10.8807 19.0543 10.7971 19.0137 10.6992C18.9732 10.6013 18.9626 10.4936 18.9833 10.3897C19.0039 10.2858 19.0549 10.1903 19.1298 10.1154L22.5394 6.70587C22.6404 6.60828 22.7757 6.55428 22.9162 6.5555C23.0567 6.55672 23.1911 6.61306 23.2904 6.71239C23.3897 6.81173 23.4461 6.9461 23.4473 7.08657C23.4485 7.22705 23.3945 7.36238 23.2969 7.46342L19.8874 10.873C19.8377 10.9228 19.7787 10.9623 19.7137 10.9892C19.6487 11.0162 19.579 11.03 19.5086 11.0299ZM18.7511 4.28695C18.609 4.28695 18.4727 4.2305 18.3722 4.13003C18.2717 4.02955 18.2153 3.89328 18.2153 3.75119V3.21544C18.2153 3.07335 18.2717 2.93708 18.3722 2.83661C18.4727 2.73613 18.609 2.67969 18.7511 2.67969C18.8931 2.67969 19.0294 2.73613 19.1299 2.83661C19.2304 2.93708 19.2868 3.07335 19.2868 3.21544V3.75119C19.2868 3.89328 19.2304 4.02955 19.1299 4.13003C19.0294 4.2305 18.8931 4.28695 18.7511 4.28695ZM18.7511 19.8238C18.609 19.8238 18.4727 19.7673 18.3722 19.6669C18.2717 19.5664 18.2153 19.4301 18.2153 19.288V18.7523C18.2153 18.6102 18.2717 18.4739 18.3722 18.3734C18.4727 18.273 18.609 18.2165 18.7511 18.2165C18.8931 18.2165 19.0294 18.273 19.1299 18.3734C19.2304 18.4739 19.2868 18.6102 19.2868 18.7523V19.288C19.2868 19.4301 19.2304 19.5664 19.1299 19.6669C19.0294 19.7673 18.8931 19.8238 18.7511 19.8238ZM26.7873 11.7875H26.2516C26.1095 11.7875 25.9732 11.731 25.8728 11.6306C25.7723 11.5301 25.7158 11.3938 25.7158 11.2517C25.7158 11.1096 25.7723 10.9734 25.8728 10.8729C25.9732 10.7724 26.1095 10.716 26.2516 10.716H26.7873C26.9294 10.716 27.0657 10.7724 27.1662 10.8729C27.2666 10.9734 27.3231 11.1096 27.3231 11.2517C27.3231 11.3938 27.2666 11.5301 27.1662 11.6306C27.0657 11.731 26.9294 11.7875 26.7873 11.7875Z" fill="#0D1321"/>
</svg>
