<svg width="29" height="30" viewBox="0 0 29 30" fill="none" xmlns="http://www.w3.org/2000/svg">
<path d="M0.503572 15.2281C0.379677 15.228 0.260509 15.1805 0.170548 15.0953C0.0805869 15.0101 0.0266641 14.8937 0.0198567 14.77C0.00641941 14.517 -0.000200323 14.2637 4.6156e-06 14.0103L0.00194139 13.7672C0.00422597 13.6403 0.0562465 13.5194 0.146805 13.4305C0.237363 13.3415 0.359219 13.2917 0.48614 13.2917H0.49534C0.623595 13.2943 0.745599 13.3476 0.834565 13.44C0.923532 13.5325 0.972189 13.6564 0.969855 13.7847L0.968403 14.0103C0.968403 14.245 0.974859 14.4808 0.98777 14.7177C0.991232 14.7813 0.982125 14.8449 0.960969 14.9049C0.939813 14.965 0.907025 15.0203 0.864479 15.0676C0.821934 15.115 0.770468 15.1535 0.713025 15.1809C0.655583 15.2084 0.593292 15.2242 0.529718 15.2276C0.520847 15.228 0.512451 15.2281 0.503572 15.2281ZM0.657063 12.3335C0.586887 12.3336 0.517537 12.3184 0.453815 12.289C0.390092 12.2596 0.333521 12.2167 0.288019 12.1633C0.242516 12.1099 0.20917 12.0472 0.19029 11.9796C0.171409 11.912 0.167446 11.8411 0.178674 11.7718C0.231936 11.4411 0.297787 11.1104 0.37429 10.788C0.388979 10.7261 0.415709 10.6677 0.452956 10.6162C0.490202 10.5646 0.537235 10.5209 0.59137 10.4876C0.645504 10.4542 0.705679 10.4318 0.76846 10.4217C0.831241 10.4116 0.895397 10.414 0.957266 10.4287C1.01914 10.4434 1.07751 10.4701 1.12904 10.5073C1.18058 10.5446 1.22428 10.5916 1.25764 10.6458C1.291 10.6999 1.31338 10.7601 1.32348 10.8228C1.33359 10.8856 1.33123 10.9498 1.31654 11.0117C1.24499 11.3142 1.18442 11.6193 1.13497 11.9263C1.11657 12.0398 1.05839 12.143 0.970824 12.2176C0.883263 12.2921 0.772041 12.3335 0.657063 12.3335ZM1.42403 9.53727C1.36335 9.53731 1.3032 9.52581 1.24682 9.50337C1.18765 9.48007 1.13365 9.44535 1.0879 9.40117C1.04215 9.357 1.00555 9.30425 0.980194 9.24593C0.954835 9.18762 0.941212 9.12488 0.940103 9.06129C0.938993 8.99771 0.95042 8.93453 0.973729 8.87537C1.09478 8.5679 1.22987 8.2585 1.37561 7.95539C1.40206 7.89637 1.44007 7.84325 1.48738 7.79917C1.5347 7.75508 1.59037 7.72092 1.6511 7.6987C1.71184 7.67648 1.77641 7.66665 1.841 7.66979C1.9056 7.67294 1.96891 7.68899 2.0272 7.717C2.08549 7.74501 2.13758 7.78442 2.18039 7.83289C2.2232 7.88137 2.25586 7.93792 2.27646 7.99923C2.29705 8.06053 2.30516 8.12534 2.30029 8.18983C2.29543 8.25432 2.2777 8.31718 2.24814 8.37471C2.11305 8.65651 1.98716 8.94461 1.87482 9.23028C1.83919 9.3207 1.7772 9.39832 1.6969 9.45306C1.6166 9.5078 1.52122 9.53714 1.42403 9.53727ZM25.5831 7.38597C25.5004 7.38613 25.419 7.36507 25.3467 7.3248C25.2743 7.28454 25.2136 7.22641 25.1701 7.15598C25.0089 6.89451 24.8346 6.63353 24.652 6.38077C24.6148 6.32921 24.5881 6.27081 24.5734 6.20892C24.5588 6.14703 24.5564 6.08286 24.5666 6.02007C24.5767 5.95728 24.5991 5.8971 24.6325 5.84297C24.6659 5.78884 24.7096 5.74182 24.7612 5.70459C24.8128 5.66736 24.8712 5.64065 24.9331 5.62599C24.995 5.61133 25.0591 5.609 25.1219 5.61914C25.1847 5.62928 25.2449 5.65169 25.299 5.68508C25.3531 5.71848 25.4002 5.76221 25.4374 5.81378C25.634 6.0859 25.8209 6.36576 25.9952 6.64805C26.0403 6.72136 26.065 6.80537 26.0669 6.89142C26.0687 6.97747 26.0476 7.06246 26.0057 7.13763C25.9637 7.2128 25.9025 7.27543 25.8284 7.31908C25.7542 7.36273 25.6697 7.38582 25.5836 7.38597H25.5831ZM2.77156 6.96859C2.6839 6.96849 2.59792 6.94459 2.52278 6.89945C2.44764 6.85431 2.38617 6.78962 2.34491 6.71228C2.30366 6.63494 2.28417 6.54785 2.28853 6.4603C2.29289 6.37276 2.32094 6.28804 2.36967 6.21518C2.55561 5.93725 2.75316 5.66319 2.95749 5.40172C2.99643 5.35112 3.045 5.30872 3.10039 5.27696C3.15578 5.2452 3.21691 5.22471 3.28025 5.21667C3.3436 5.20862 3.40791 5.21319 3.46948 5.2301C3.53105 5.24702 3.58867 5.27594 3.63902 5.31521C3.68937 5.35448 3.73145 5.40332 3.76285 5.45892C3.79425 5.51452 3.81434 5.57578 3.82196 5.63918C3.82959 5.70257 3.8246 5.76685 3.80729 5.82831C3.78997 5.88977 3.76067 5.9472 3.72107 5.99729C3.52973 6.24262 3.34723 6.49473 3.17393 6.75312C3.12974 6.81935 3.06991 6.87366 2.99973 6.91124C2.92954 6.94883 2.85117 6.96852 2.77156 6.96859ZM23.8032 5.09668C23.7381 5.09676 23.6737 5.08368 23.6138 5.05822C23.5539 5.03276 23.4997 4.99544 23.4546 4.94851C23.2385 4.72432 23.0145 4.50791 22.783 4.29969C22.7344 4.25754 22.6947 4.20615 22.6662 4.1485C22.6377 4.09085 22.621 4.0281 22.617 3.96391C22.6131 3.89972 22.6219 3.83539 22.6431 3.77466C22.6642 3.71393 22.6973 3.65802 22.7403 3.6102C22.7832 3.56237 22.8353 3.5236 22.8935 3.49613C22.9516 3.46866 23.0147 3.45305 23.0789 3.45021C23.1432 3.44737 23.2073 3.45735 23.2677 3.47958C23.328 3.50181 23.3833 3.53584 23.4304 3.57968C23.6764 3.80096 23.9194 4.03483 24.1518 4.27596C24.2179 4.34434 24.2624 4.43068 24.2798 4.52419C24.2971 4.6177 24.2865 4.71425 24.2494 4.80179C24.2122 4.88932 24.15 4.96397 24.0707 5.01641C23.9914 5.06886 23.8983 5.09677 23.8032 5.09668ZM4.63282 4.74515C4.53629 4.74515 4.44197 4.7163 4.36196 4.66231C4.28195 4.60832 4.2199 4.53164 4.18378 4.44213C4.14767 4.35261 4.13913 4.25435 4.15926 4.15995C4.1794 4.06554 4.22729 3.97931 4.29679 3.91233C4.53734 3.68054 4.78588 3.45718 5.04197 3.24268C5.09039 3.19954 5.14698 3.16657 5.20838 3.14572C5.26978 3.12488 5.33474 3.11657 5.39942 3.12131C5.46409 3.12604 5.52715 3.14372 5.58486 3.17329C5.64257 3.20286 5.69376 3.24372 5.73538 3.29345C5.77699 3.34318 5.8082 3.40076 5.82714 3.46278C5.84608 3.5248 5.85237 3.58999 5.84564 3.65448C5.83891 3.71898 5.81929 3.78146 5.78795 3.83823C5.75661 3.895 5.71419 3.9449 5.6632 3.98496C5.42462 4.1851 5.19303 4.39343 4.96885 4.60957C4.87867 4.69664 4.75818 4.74525 4.63282 4.74515ZM21.5788 3.2359C21.4829 3.23582 21.3892 3.20716 21.3096 3.15359C21.0511 2.98048 20.7866 2.81656 20.5165 2.66213C20.4597 2.63144 20.4096 2.5897 20.3692 2.53937C20.3288 2.48905 20.2988 2.43115 20.2811 2.36908C20.2634 2.30701 20.2582 2.24202 20.266 2.17794C20.2738 2.11385 20.2943 2.05197 20.3263 1.99593C20.3583 1.93988 20.4012 1.89081 20.4525 1.85158C20.5038 1.81236 20.5624 1.78379 20.6248 1.76754C20.6873 1.7513 20.7524 1.74771 20.8163 1.75698C20.8802 1.76626 20.9415 1.78821 20.9968 1.82156C21.287 1.98739 21.5712 2.16342 21.849 2.34933C21.9351 2.40722 22.0004 2.49124 22.0352 2.58903C22.0699 2.68681 22.0723 2.79317 22.0421 2.89244C22.0118 2.99171 21.9504 3.07862 21.867 3.14037C21.7836 3.20212 21.6826 3.23593 21.5788 3.2359ZM6.92163 2.96669C6.81618 2.96688 6.71355 2.93264 6.62933 2.86918C6.54512 2.80572 6.48392 2.7165 6.45505 2.61508C6.42617 2.51366 6.43119 2.40558 6.46935 2.30728C6.50751 2.20897 6.57672 2.12581 6.66646 2.07043C6.94874 1.89612 7.2412 1.72907 7.53656 1.57462C7.59306 1.54216 7.65552 1.52145 7.72022 1.51371C7.78491 1.50597 7.8505 1.51137 7.91305 1.52958C7.97561 1.54779 8.03385 1.57844 8.08428 1.61969C8.13471 1.66094 8.1763 1.71195 8.20655 1.76965C8.23681 1.82735 8.25511 1.89057 8.26035 1.95551C8.26559 2.02045 8.25768 2.08579 8.23707 2.1476C8.21647 2.20941 8.18361 2.26642 8.14045 2.31523C8.09729 2.36404 8.04472 2.40364 7.9859 2.43165C7.71136 2.57642 7.43875 2.73185 7.17583 2.89406C7.09949 2.9414 7.01146 2.96655 6.92163 2.96669ZM19.0121 1.88886C18.9514 1.88892 18.8912 1.87741 18.8349 1.85497C18.5451 1.74115 18.2515 1.63747 17.9546 1.54411C17.8321 1.50559 17.7299 1.41997 17.6705 1.3061C17.6111 1.19223 17.5994 1.05944 17.6379 0.936925C17.6764 0.814415 17.7621 0.712226 17.8759 0.65284C17.9898 0.593453 18.1226 0.581734 18.2451 0.620259C18.5618 0.71952 18.8794 0.831854 19.1898 0.954356C19.2945 0.995756 19.3816 1.07238 19.4359 1.17104C19.4903 1.2697 19.5085 1.38421 19.4875 1.49488C19.4665 1.60554 19.4076 1.70542 19.3209 1.77734C19.2342 1.84925 19.1247 1.88868 19.0121 1.88886ZM9.53485 1.71552C9.42064 1.71543 9.31014 1.67497 9.22287 1.60129C9.1356 1.52761 9.07719 1.42545 9.05795 1.31287C9.03872 1.20029 9.05989 1.08454 9.11775 0.986059C9.1756 0.887583 9.2664 0.812727 9.3741 0.774718C9.68737 0.664805 10.0084 0.564092 10.3309 0.475968C10.3922 0.459213 10.4563 0.454708 10.5194 0.46271C10.5825 0.470712 10.6434 0.491064 10.6986 0.522605C10.7539 0.554146 10.8024 0.596258 10.8413 0.646536C10.8803 0.696813 10.909 0.754273 10.9257 0.815633C10.9425 0.876994 10.947 0.941053 10.939 1.00415C10.931 1.06726 10.9106 1.12816 10.8791 1.1834C10.8475 1.23864 10.8054 1.28712 10.7551 1.32608C10.7049 1.36504 10.6474 1.39372 10.586 1.41047C10.2863 1.49182 9.98709 1.58575 9.6956 1.68792C9.64396 1.70613 9.58961 1.71546 9.53485 1.71552ZM16.2168 1.12092C16.1908 1.12092 16.1649 1.11881 16.1393 1.11463C15.832 1.06506 15.5231 1.02646 15.2131 0.998902C15.0852 0.987587 14.967 0.925935 14.8845 0.827506C14.8021 0.729077 14.7621 0.601931 14.7734 0.474031C14.7866 0.346929 14.8488 0.22997 14.9468 0.147912C15.0448 0.0658541 15.1708 0.0251365 15.2983 0.0343781C15.6285 0.0634301 15.9631 0.105555 16.2938 0.158817C16.4138 0.17835 16.522 0.242288 16.597 0.337935C16.672 0.433581 16.7083 0.553939 16.6986 0.675104C16.689 0.79627 16.6342 0.90938 16.545 0.991971C16.4558 1.07456 16.3383 1.12059 16.2168 1.12092ZM12.3568 1.05313C12.2331 1.05362 12.114 1.0068 12.0238 0.922277C11.9336 0.837751 11.8791 0.721918 11.8716 0.598522C11.864 0.475126 11.9039 0.353515 11.9832 0.258616C12.0624 0.163717 12.1749 0.102718 12.2977 0.0881242C12.6289 0.046869 12.9614 0.0174755 13.2947 0L13.3213 0.483715V0.967914C13.0366 0.983408 12.7248 1.01052 12.4168 1.04926C12.3969 1.05169 12.3768 1.0533 12.3568 1.05313ZM27.9417 11.7428L20.1945 3.99561C20.1496 3.95056 20.0962 3.9148 20.0375 3.89037C19.9788 3.86594 19.9158 3.85333 19.8522 3.85326H10.1682C9.52638 3.85402 8.91108 4.10936 8.4573 4.56323C8.00352 5.0171 7.74831 5.63244 7.74767 6.27425V11.6489C7.20117 11.7612 6.71011 12.0585 6.35729 12.4907C6.00448 12.9229 5.81149 13.4635 5.81088 14.0214V16.4424C5.81049 16.8276 5.65733 17.1968 5.385 17.4691C5.11266 17.7415 4.74341 17.8946 4.35828 17.895H3.87408V16.9266C3.87408 16.7982 3.82307 16.6751 3.73226 16.5842C3.64146 16.4934 3.5183 16.4424 3.38988 16.4424H0.484688C0.35627 16.4424 0.233112 16.4934 0.142307 16.5842C0.0515025 16.6751 0.000488779 16.7982 0.000488779 16.9266V29.5158C0.000488779 29.6442 0.0515025 29.7674 0.142307 29.8582C0.233112 29.949 0.35627 30 0.484688 30H3.38988C3.5183 30 3.64146 29.949 3.73226 29.8582C3.82307 29.7674 3.87408 29.6442 3.87408 29.5158V28.5474H7.95636C8.14287 28.9791 8.45173 29.3467 8.8448 29.6048C9.23787 29.863 9.69793 30.0004 10.1682 30H25.6625C26.3044 29.9992 26.9197 29.7439 27.3736 29.2901C27.8275 28.8362 28.0828 28.2209 28.0835 27.579V12.0846C28.0834 11.9564 28.0324 11.8335 27.9417 11.7428ZM20.3364 5.50631L26.4305 11.6004H21.789C21.4038 11.6001 21.0346 11.4469 20.7622 11.1746C20.4899 10.9022 20.3367 10.533 20.3364 10.1478V5.50631ZM2.90568 29.0316H0.968887V17.4108H2.90568V29.0316ZM3.87408 18.8634H4.35828C5.00013 18.8627 5.61547 18.6073 6.06933 18.1535C6.52319 17.6996 6.77851 17.0843 6.77927 16.4424V14.0214C6.77575 13.8285 6.81071 13.6368 6.88212 13.4575C6.95352 13.2782 7.05994 13.1149 7.19515 12.9772C7.33037 12.8395 7.49166 12.7301 7.66962 12.6554C7.84758 12.5808 8.03864 12.5423 8.23163 12.5423C8.42462 12.5423 8.61567 12.5808 8.79363 12.6554C8.97159 12.7301 9.13289 12.8395 9.2681 12.9772C9.40332 13.1149 9.50973 13.2782 9.58114 13.4575C9.65254 13.6368 9.68751 13.8285 9.68398 14.0214V17.4108C9.68398 17.5392 9.735 17.6624 9.8258 17.7532C9.91661 17.844 10.0398 17.895 10.1682 17.895H14.4345C14.7891 17.895 15.1394 17.9728 15.4607 18.1231C15.7819 18.2734 16.0662 18.4925 16.2934 18.7648C16.5206 19.0371 16.6852 19.356 16.7756 19.6989C16.8659 20.0419 16.8798 20.4005 16.8162 20.7494L15.9369 25.5909C15.8355 26.1488 15.5415 26.6534 15.1062 27.0168C14.6708 27.3801 14.1217 27.5791 13.5547 27.579H3.8736L3.87408 18.8634ZM25.6625 29.0316H10.1682C9.96431 29.0316 9.76275 28.9884 9.57674 28.905C9.39073 28.8215 9.22448 28.6997 9.0889 28.5474H13.5542C14.348 28.5476 15.1167 28.269 15.7261 27.7604C16.3356 27.2517 16.7471 26.5453 16.8889 25.7642L17.7687 20.9222C17.8576 20.4339 17.8382 19.9319 17.7117 19.4519C17.5853 18.9718 17.3549 18.5254 17.0368 18.1443C16.7188 17.7631 16.3209 17.4565 15.8713 17.2461C15.4217 17.0357 14.9314 16.9266 14.4349 16.9266H10.6524V14.0214C10.6517 13.4637 10.4587 12.9232 10.106 12.4911C9.75329 12.059 9.2624 11.7617 8.71607 11.6493V6.27473C8.71633 5.8896 8.86937 5.5203 9.14161 5.24788C9.41385 4.97545 9.78305 4.82217 10.1682 4.82165H19.368V10.1478C19.3687 10.7897 19.624 11.405 20.0779 11.8589C20.5318 12.3128 21.1471 12.5681 21.789 12.5688H27.1151V27.579C27.1148 27.9641 26.9616 28.3334 26.6893 28.6057C26.4169 28.8781 26.0477 29.0312 25.6625 29.0316ZM21.2162 21.084C21.1776 20.9994 21.1156 20.9278 21.0375 20.8775C20.9594 20.8272 20.8684 20.8005 20.7755 20.8005C20.6826 20.8005 20.5917 20.8272 20.5136 20.8775C20.4354 20.9278 20.3734 20.9994 20.3349 21.084L17.9139 26.4101C17.8859 26.4682 17.8698 26.5314 17.8665 26.5958C17.8632 26.6602 17.8728 26.7246 17.8947 26.7853C17.9167 26.8459 17.9505 26.9016 17.9943 26.949C18.038 26.9964 18.0908 27.0345 18.1495 27.0612C18.2082 27.0879 18.2717 27.1027 18.3362 27.1045C18.4006 27.1063 18.4648 27.0953 18.525 27.072C18.5851 27.0487 18.64 27.0136 18.6864 26.9688C18.7328 26.924 18.7698 26.8704 18.7952 26.8111L19.3302 25.6345C19.3433 25.6354 19.3544 25.6422 19.368 25.6422H22.2247L22.7554 26.8111C22.7808 26.8704 22.8178 26.924 22.8642 26.9688C22.9106 27.0136 22.9655 27.0487 23.0256 27.072C23.0857 27.0953 23.1499 27.1063 23.2144 27.1045C23.2789 27.1027 23.3423 27.0879 23.401 27.0612C23.4598 27.0345 23.5125 26.9964 23.5563 26.949C23.6001 26.9016 23.6339 26.8459 23.6558 26.7853C23.6778 26.7246 23.6874 26.6602 23.6841 26.5958C23.6808 26.5314 23.6647 26.4682 23.6367 26.4101L21.2162 21.084ZM19.7669 24.6738L20.7755 22.4547L21.7841 24.6738H19.7669ZM25.1783 22.2528C25.1783 22.3812 25.1273 22.5044 25.0365 22.5952C24.9457 22.686 24.8226 22.737 24.6942 22.737H24.21V23.2212C24.21 23.3496 24.1589 23.4728 24.0681 23.5636C23.9773 23.6544 23.8542 23.7054 23.7258 23.7054C23.5973 23.7054 23.4742 23.6544 23.3834 23.5636C23.2926 23.4728 23.2416 23.3496 23.2416 23.2212V22.737H22.7574C22.6289 22.737 22.5058 22.686 22.415 22.5952C22.3242 22.5044 22.2732 22.3812 22.2732 22.2528C22.2732 22.1244 22.3242 22.0012 22.415 21.9104C22.5058 21.8196 22.6289 21.7686 22.7574 21.7686H23.2416V21.2844C23.2416 21.156 23.2926 21.0328 23.3834 20.942C23.4742 20.8512 23.5973 20.8002 23.7258 20.8002C23.8542 20.8002 23.9773 20.8512 24.0681 20.942C24.1589 21.0328 24.21 21.156 24.21 21.2844V21.7686H24.6942C24.8226 21.7686 24.9457 21.8196 25.0365 21.9104C25.1273 22.0012 25.1783 22.1244 25.1783 22.2528ZM17.4312 8.21105C17.4312 8.33946 17.3802 8.46262 17.2893 8.55343C17.1985 8.64423 17.0754 8.69524 16.947 8.69524H12.5892C12.4608 8.69524 12.3376 8.64423 12.2468 8.55343C12.156 8.46262 12.105 8.33946 12.105 8.21105C12.105 8.08263 12.156 7.95947 12.2468 7.86867C12.3376 7.77786 12.4608 7.72685 12.5892 7.72685H16.947C17.0754 7.72685 17.1985 7.77786 17.2893 7.86867C17.3802 7.95947 17.4312 8.08263 17.4312 8.21105ZM12.105 10.632C12.105 10.5036 12.156 10.3805 12.2468 10.2897C12.3376 10.1989 12.4608 10.1478 12.5892 10.1478H15.0102C15.1386 10.1478 15.2617 10.1989 15.3526 10.2897C15.4434 10.3805 15.4944 10.5036 15.4944 10.632C15.4944 10.7605 15.4434 10.8836 15.3526 10.9744C15.2617 11.0652 15.1386 11.1162 15.0102 11.1162H12.5892C12.4608 11.1162 12.3376 11.0652 12.2468 10.9744C12.156 10.8836 12.105 10.7605 12.105 10.632ZM17.4312 13.053C17.4312 13.1815 17.3802 13.3046 17.2893 13.3954C17.1985 13.4862 17.0754 13.5372 16.947 13.5372H12.5892C12.4608 13.5372 12.3376 13.4862 12.2468 13.3954C12.156 13.3046 12.105 13.1815 12.105 13.053C12.105 12.9246 12.156 12.8015 12.2468 12.7107C12.3376 12.6199 12.4608 12.5688 12.5892 12.5688H16.947C17.0754 12.5688 17.1985 12.6199 17.2893 12.7107C17.3802 12.8015 17.4312 12.9246 17.4312 13.053Z" fill="#231F20"/>
</svg>
