<svg width="30" height="30" viewBox="0 0 30 30" fill="none" xmlns="http://www.w3.org/2000/svg">
<path fill-rule="evenodd" clip-rule="evenodd" d="M7.75577 3.09528H22.2432C22.526 3.09528 22.7558 2.8658 22.7558 2.58292C22.7558 2.30004 22.526 2.07031 22.2432 2.07031H7.75577C7.47289 2.07031 7.24316 2.30004 7.24316 2.58292C7.24316 2.8658 7.47289 3.09528 7.75577 3.09528ZM7.75577 5.16509H22.2432C22.526 5.16509 22.7558 4.93536 22.7558 4.65248C22.7558 4.3696 22.526 4.13987 22.2432 4.13987H7.75577C7.47289 4.13987 7.24316 4.3696 7.24316 4.65248C7.24316 4.93536 7.47289 5.16509 7.75577 5.16509ZM21.7209 24.3241C21.7209 20.8289 18.8876 17.9957 15.3925 17.9957C15.0296 17.9957 14.6643 17.9957 14.3017 17.9957C10.8063 17.9957 7.97308 20.8289 7.97308 24.3241C7.97308 26.9564 7.97308 29.4881 7.97308 29.4881C7.97308 29.7713 8.20257 30.0008 8.48569 30.0008H21.2085C21.4914 30.0008 21.7209 29.7713 21.7209 29.4881V24.3241ZM20.6959 24.3241C20.6959 21.3952 18.3214 19.0207 15.3925 19.0207C15.0296 19.0207 14.6643 19.0207 14.3017 19.0207C11.3726 19.0207 8.99805 21.3952 8.99805 24.3241V28.9755H20.6959V24.3241Z" fill="#0D1321"/>
<path fill-rule="evenodd" clip-rule="evenodd" d="M20.6963 28.9748V24.3233C20.6963 22.8784 20.1184 21.568 19.1811 20.6119C18.9859 20.4127 18.9856 20.0943 19.1803 19.8949C20.3258 18.7224 21.9242 17.9949 23.6925 17.9949C27.1759 17.9949 30 20.8187 30 24.3024V29.4874C30 29.7705 29.7705 30 29.4874 30H17.8973V28.9748H20.6963ZM28.9748 28.9748V24.3024C28.9748 21.385 26.6099 19.0199 23.6925 19.0199C22.3841 19.0199 21.1871 19.4955 20.2642 20.2835C21.1741 21.3795 21.7213 22.7875 21.7213 24.3233V28.9748H28.9748ZM12.1024 30H0.51236C0.229482 30 0 29.7705 0 29.4874C0 29.4874 0 26.942 0 24.3024C0 20.8187 2.82382 17.9949 6.30751 17.9949C7.99212 17.9949 9.52249 18.6553 10.6538 19.7314C10.7556 19.8283 10.8132 19.9627 10.813 20.1032C10.813 20.2436 10.7551 20.3779 10.6533 20.4748C9.63425 21.4409 8.99846 22.8078 8.99846 24.3233V28.9748H12.1024V30ZM9.55602 20.137C8.6602 19.4369 7.53241 19.0199 6.30751 19.0199C3.39007 19.0199 1.02497 21.385 1.02497 24.3024V28.9748H7.97349V24.3233C7.97349 22.7182 8.57129 21.2524 9.55602 20.137ZM15 8.50721C12.7812 8.50721 10.9798 10.3085 10.9798 12.5274C10.9798 14.7459 12.7812 16.5473 15 16.5473C17.2186 16.5473 19.0199 14.7459 19.0199 12.5274C19.0199 10.3085 17.2186 8.50721 15 8.50721ZM15 9.53218C16.6528 9.53218 17.9949 10.8743 17.9949 12.5274C17.9949 14.1802 16.6528 15.5223 15 15.5223C13.3469 15.5223 12.0051 14.1802 12.0051 12.5274C12.0051 10.8743 13.3469 9.53218 15 9.53218ZM24.3134 8.50721C22.0946 8.50721 20.2932 10.3085 20.2932 12.5274C20.2932 14.7459 22.0946 16.5473 24.3134 16.5473C26.5319 16.5473 28.3333 14.7459 28.3333 12.5274C28.3333 10.3085 26.5319 8.50721 24.3134 8.50721ZM24.3134 9.53218C25.9662 9.53218 27.3083 10.8743 27.3083 12.5274C27.3083 14.1802 25.9662 15.5223 24.3134 15.5223C22.6603 15.5223 21.3184 14.1802 21.3184 12.5274C21.3184 10.8743 22.6603 9.53218 24.3134 9.53218ZM5.68662 8.50721C3.4678 8.50721 1.66647 10.3085 1.66647 12.5274C1.66647 14.7459 3.4678 16.5473 5.68662 16.5473C7.90519 16.5473 9.70652 14.7459 9.70652 12.5274C9.70652 10.3085 7.90519 8.50721 5.68662 8.50721ZM5.68662 9.53218C7.33944 9.53218 8.68156 10.8743 8.68156 12.5274C8.68156 14.1802 7.33944 15.5223 5.68662 15.5223C4.03356 15.5223 2.69169 14.1802 2.69169 12.5274C2.69169 10.8743 4.03356 9.53218 5.68662 9.53218ZM25.7745 0.22824C25.6796 0.0854347 25.5194 0 25.348 0H4.65172C4.48035 0 4.32041 0.0854347 4.22529 0.22824L2.15574 3.3327C2.04075 3.50481 2.04075 3.72908 2.15574 3.90119L4.22529 7.00565C4.32041 7.1482 4.48035 7.23388 4.65172 7.23388H25.348C25.5194 7.23388 25.6796 7.1482 25.7745 7.00565L27.8443 3.90119C27.959 3.72908 27.959 3.50481 27.8443 3.3327L25.7745 0.22824ZM4.92591 1.02497L3.19809 3.61682L4.92591 6.20892H25.0738L26.8017 3.61682L25.0738 1.02497H4.92591Z" fill="#0D1321"/>
</svg>
