<svg width="60" height="60" viewBox="0 0 60 60" fill="none" xmlns="http://www.w3.org/2000/svg">
<path d="M40 15H25C24.6685 15 24.3505 15.1317 24.1161 15.3661C23.8817 15.6005 23.75 15.9185 23.75 16.25V38.75C23.75 39.0815 23.8817 39.3995 24.1161 39.6339C24.3505 39.8683 24.6685 40 25 40H40C40.3315 40 40.6495 39.8683 40.8839 39.6339C41.1183 39.3995 41.25 39.0815 41.25 38.75V16.25C41.25 15.9185 41.1183 15.6005 40.8839 15.3661C40.6495 15.1317 40.3315 15 40 15ZM33.75 25V27.5H31.25V25H33.75ZM38.75 25V27.5H36.25V25H38.75ZM28.75 27.5H26.25V25H28.75V27.5ZM26.25 30H28.75V32.5H26.25V30ZM31.25 30H33.75V32.5H31.25V30ZM36.25 30H38.75V32.5H36.25V30ZM26.25 17.5H38.75V22.5H26.25V17.5ZM26.25 35H28.75V37.5H26.25V35ZM31.25 35H33.75V37.5H31.25V35ZM38.75 37.5H36.25V35H38.75V37.5Z" fill="black"/>
<path d="M58.75 0H1.25C0.918479 0 0.600537 0.131696 0.366117 0.366117C0.131696 0.600537 0 0.918479 0 1.25V53.75C0 54.0815 0.131696 54.3995 0.366117 54.6339C0.600537 54.8683 0.918479 55 1.25 55H5V58.75C5 59.0815 5.1317 59.3995 5.36612 59.6339C5.60054 59.8683 5.91848 60 6.25 60H11.25C11.5815 60 11.8995 59.8683 12.1339 59.6339C12.3683 59.3995 12.5 59.0815 12.5 58.75V55H47.5V58.75C47.5 59.0815 47.6317 59.3995 47.8661 59.6339C48.1005 59.8683 48.4185 60 48.75 60H53.75C54.0815 60 54.3995 59.8683 54.6339 59.6339C54.8683 59.3995 55 59.0815 55 58.75V55H58.75C59.0815 55 59.3995 54.8683 59.6339 54.6339C59.8683 54.3995 60 54.0815 60 53.75V1.25C60 0.918479 59.8683 0.600537 59.6339 0.366117C59.3995 0.131696 59.0815 0 58.75 0ZM10 57.5H7.5V55H10V57.5ZM52.5 57.5H50V55H52.5V57.5ZM57.5 52.5H2.5V2.5H57.5V52.5Z" fill="black"/>
<path d="M7.5 42.5H10V48.75C10 49.0815 10.1317 49.3995 10.3661 49.6339C10.6005 49.8683 10.9185 50 11.25 50H53.75C54.0815 50 54.3995 49.8683 54.6339 49.6339C54.8683 49.3995 55 49.0815 55 48.75V6.25C55 5.91848 54.8683 5.60054 54.6339 5.36612C54.3995 5.1317 54.0815 5 53.75 5H11.25C10.9185 5 10.6005 5.1317 10.3661 5.36612C10.1317 5.60054 10 5.91848 10 6.25V12.5H7.5C6.83696 12.5 6.20107 12.7634 5.73223 13.2322C5.26339 13.7011 5 14.337 5 15V17.5C5 18.163 5.26339 18.7989 5.73223 19.2678C6.20107 19.7366 6.83696 20 7.5 20H10V35H7.5C6.83696 35 6.20107 35.2634 5.73223 35.7322C5.26339 36.2011 5 36.837 5 37.5V40C5 40.663 5.26339 41.2989 5.73223 41.7678C6.20107 42.2366 6.83696 42.5 7.5 42.5ZM7.5 15H15V17.5H7.5V15ZM12.5 20H15C15.663 20 16.2989 19.7366 16.7678 19.2678C17.2366 18.7989 17.5 18.163 17.5 17.5V15C17.5 14.337 17.2366 13.7011 16.7678 13.2322C16.2989 12.7634 15.663 12.5 15 12.5H12.5V7.5H52.5V47.5H12.5V42.5H15C15.663 42.5 16.2989 42.2366 16.7678 41.7678C17.2366 41.2989 17.5 40.663 17.5 40V37.5C17.5 36.837 17.2366 36.2011 16.7678 35.7322C16.2989 35.2634 15.663 35 15 35H12.5V20ZM7.5 37.5H15V40H7.5V37.5Z" fill="black"/>
</svg>
